<mxfile host="app.diagrams.net" modified="2024-06-29T09:17:55.209Z" agent="Mozilla/5.0 (Windows NT 10.0; Win64; x64) AppleWebKit/537.36 (KHTML, like Gecko) Chrome/126.0.0.0 Safari/537.36" version="24.6.4" etag="jZNC-pji_OcwkObQ_jAd" type="github">
  <diagram name="第 1 页" id="jY1Njf8N5J5j8LObcoA6">
    <mxGraphModel>
      <root>
        <mxCell id="0" />
        <mxCell id="1" parent="0" />
      </root>
    </mxGraphModel>
  </diagram>
</mxfile>
